# xmcd CD database file
#
# Track frame offsets:
#	150
#	11991
#	45225
#	93054
#	115506
#	147488
#
# Disc length: 2510 seconds
#
# Revision: 0
# Processed by: cddbd v1.5.1PL0 Copyright (c) Steve Scherf et al.
# Submitted via: CDex 1.51
#
DISCID=4109cc06
DTITLE=Jethro Sieber Jazzband - Out of Nowhere
DYEAR=1900
DGENRE=Jazz
TTITLE0=Afro Blue
TTITLE1=Autumn Leaves
TTITLE2=Girl from Ipanema
TTITLE3=Out of Nowhere
TTITLE4=Black Orpheus
TTITLE5=Easy Living
EXTD=
EXTT0=
EXTT1=
EXTT2=
EXTT3=
EXTT4=
EXTT5=
PLAYORDER=
